<?xml version="1.0" encoding="utf-8"?>
<!-- Uploaded to: SVG Repo, www.svgrepo.com, Generator: SVG Repo Mixer Tools -->
<svg fill="red" width="800px" height="800px" viewBox="0 0 32 32" version="1.1" xmlns="http://www.w3.org/2000/svg">
<title>bat-sword</title>
<path d="M26.358 24.219l-0.974-2.44-7.455-6.714c3.673-1.792 7.859-1.604 8.898 3.263 5.725-4.529 4.518-11.253 0.223-17.312 1.087 3.117-1.186 6.222-4.646 3.206 1.606 3.508-1.793 5.694-4.12 3.653 1.097 3.561-1.042 4.845-3.24 4.593l-4.165-3.751c1.288-1.152 2.699-2.178 4.223-3.057l-2.66-2.66-3.717 3.717c-2.518-1.038-4.437-3.075-5.903-5.867l-1.931 1.931c2.47 1.248 4.564 3.022 5.867 5.904l-3.717 3.717 2.697 2.66c0.884-1.531 1.914-2.961 3.077-4.271l3.863 4.299c0.2 2.184-1.1 4.258-4.604 3.167 2.042 2.353-0.144 5.789-3.652 4.165 3.015 3.497-0.090 5.796-3.206 4.697 6.059 4.342 12.783 5.562 17.312-0.226l-0-0c-4.848-1.047-5.054-5.248-3.286-8.95l6.615 7.363 2.42 0.966c-0.688 0.429-1.477 0.758-2.369 0.984l8.951 3.469-3.469-8.952c-0.235 0.925-0.579 1.741-1.033 2.447z"></path>
</svg>
