<?xml version="1.0" ?><svg viewBox="0 0 512 512" xmlns="http://www.w3.org/2000/svg"><defs><style>.cls-1{fill:#8fea6a;}.cls-2{fill:#b4f993;}.cls-3{fill:#1e1e1e;}</style></defs><title/><g data-name="StPatrick's-FilledOutline" id="StPatrick_s-FilledOutline"><g data-name="Clover" id="Clover-3"><path class="cls-1" d="M357.0617,94.3377C360.7882,23.5356,219.4188-11.1718,256,195.3993,462.5492,231.9778,427.9039,90.6092,357.0617,94.3377Z"/><path class="cls-1" d="M268.536,288.2981c26.8147,62.17,29.9127,131.4409-9.9205,177.2431-17.4135,20.023-47.6582-6.3019-30.2554-26.3124,3.282-3.7742,53.1466-39.8272,24.0505-144.7287C249.2864,283.2272,264.4336,278.7589,268.536,288.2981Z"/><path class="cls-1" d="M154.9383,296.4605C151.2118,367.2627,292.5812,401.97,256,195.399,49.4508,158.8205,84.0961,300.1891,154.9383,296.4605Z"/><path class="cls-2" d="M357.0614,296.4608C427.8635,300.1873,462.5709,158.818,256,195.3993,219.4214,401.9483,360.79,367.3031,357.0614,296.4608Z"/><path class="cls-2" d="M154.9386,94.3374C84.1365,90.611,49.4291,231.98,256,195.399,292.5786-11.15,151.21,23.4952,154.9386,94.3374Z"/><path class="cls-3" d="M131.4927,195.4C67.06,224.3191,97.19,299.4562,149.9087,301.4917c2.0161,51.35,73.572,81.4609,103.958,22.8315,7.5928,47.6954-1.9824,86.3506-27.5649,109.95-25.5762,23.5733,13.3507,60.6929,36.0864,34.5489,25.2107-28.9885,35.4285-68.35,29.7644-114.2427,32.0356,9.3072,68.3381-16.3951,69.9265-53.0869,52.574-2.0267,82.9976-77.1149,18.4282-106.0948,64.4439-28.9237,34.2852-104.0568-18.4145-106.0917C360.0555,36.7419,284.98,6.33,255.999,70.8916,227.0809,6.4592,151.9482,36.5881,149.9072,89.3062,97.3413,91.3435,66.9346,166.42,131.4927,195.4Zm28.4389,101.3227a5.018,5.018,0,0,0-5.2558-5.2558c-47.2864,2.4867-79.26-68.8491-8.6663-90.8449,30.1624,8.544,67.6384,6.7516,103.8906.8712-6.9265,42.6714-6.633,77.54.876,103.9344C228.7833,376.0292,157.4463,343.9312,159.9316,296.7231ZM254.8423,462.26c-13.7215,15.7788-36.957-6.62-21.76-20.6363,25.7151-23.7215,36.8141-60.6865,32.3263-105.8979a56.2941,56.2941,0,0,0,16.0106,14.24C286.3257,382.2855,285.3655,427.1637,254.8423,462.26ZM352.0684,94.0752a5.0056,5.0056,0,0,0,5.2558,5.2559c47.1643-2.484,79.3834,68.8173,8.658,90.8474-26.453-7.4843-61.3472-7.78-103.8811-.8808,6.9188-42.6346,6.62-77.4895-.8794-103.8917C283.2078,14.8412,354.5582,46.7693,352.0684,94.0752Zm12.6,106.1324c72.5155,21.5312,40.0171,93.7442-7.3438,91.26a5.0007,5.0007,0,0,0-5.2558,5.2558c2.4047,45.6686-63.62,76.69-88.149,16.2774-10.5317-25.938-11.7646-65.0513-3.5942-113.2769C303.7461,192.3539,338.8162,192.52,364.668,200.2076ZM154.6758,99.3306a5.0032,5.0032,0,0,0,5.2558-5.2559c-3.3584-63.801,124.6348-97.1505,91.7432,96.9995C57.915,223.9646,90.6992,95.9526,154.6758,99.3306Z"/></g></g></svg>