<svg  width="376" height="800" viewBox="0 0 376 800"  xmlns="http://www.w3.org/2000/svg">
<mask id="mask0_244_2415" style="mask-type:alpha" maskUnits="userSpaceOnUse" x="43" y="0" width="327" height="764" >
<rect x="43" width="327" height="764" />
</mask>
<g mask="url(#mask0_244_2415)" >
<path fill="white" d="M200 35.5953C182.655 52.6906 169.028 78.7203 159.256 99.975C168.7 131.323 176.573 163.833 202.286 185.797C231.758 163.898 244.552 133.059 257.266 97.7484C241.611 79.9297 225.644 53.7016 200 35.5953ZM600 35.5953C574.356 53.7 558.389 79.9297 542.734 97.7484C555.448 133.059 568.242 163.898 597.714 185.797C623.427 163.833 631.3 131.323 640.745 99.975C630.97 78.7203 617.344 52.6906 600 35.5953ZM347.234 72.0375C329.194 76.3328 308.253 83.3328 289.359 91.85C275.888 137.006 255.103 178.355 217.539 208.622L243.398 485.352L212.253 472.167L189.425 210C164.17 184.991 145.673 142.777 129.441 98.6172C123.902 95.0172 118.373 92.1328 112.845 90.1422C122.591 219.714 152.441 381.911 186.292 519.192C190.267 517.381 195.27 515.442 199.923 513.788C245.961 525.222 288.978 559.658 327.811 596.705C300 425 400 250 347.234 72.0375ZM452.766 72.0375C400 250 500 425 472.188 596.703C511.02 559.656 554.038 525.219 600.075 513.786C604.728 515.442 609.731 517.38 613.706 519.192C647.558 381.911 677.409 219.712 687.153 90.1406C681.625 92.1312 676.097 95.0156 670.559 98.6156C654.325 142.775 635.828 184.991 610.573 209.998L587.745 472.166L556.6 485.35L582.459 208.62C544.897 178.355 524.111 137.005 510.641 91.8469C491.745 83.3312 470.805 76.3313 452.764 72.0344L452.766 72.0375ZM201.569 543.484C180.772 552.347 157.952 572.164 149.984 597.65C187.055 604.961 232.497 626.411 267.991 660.758L274.158 702.738L326.45 683.872L324.372 638.431C293.513 593.586 244.57 555.744 201.569 543.484ZM598.431 543.484C555.431 555.744 506.489 593.586 475.628 638.431L473.55 683.872L525.842 702.738L532.009 660.758C567.503 626.411 612.947 604.961 650.016 597.65C642.048 572.164 619.228 552.347 598.431 543.484ZM141.703 624.536L60.0516 685.898C43.9391 709.728 39.8594 736.85 46.525 759.583C128.648 774.103 184.419 754.447 248.155 719.211L241.475 673.767C218.502 650.119 188.873 632.589 141.703 624.536ZM658.3 624.536C611.13 632.589 581.502 650.119 558.528 673.767L551.848 719.211C615.584 754.445 671.355 774.103 753.478 759.583C760.144 736.848 756.064 709.728 739.952 685.898L658.3 624.536Z" />
</g>
</svg>

