<svg xmlns="http://www.w3.org/2000/svg" viewBox="0 0 1920 1920">
    <style>
    
        .st0{fill:#fff}.st1{fill:black;stroke:green;stroke-width:80;stroke-linecap:round;stroke-linejoin:round;stroke-miterlimit:10}
    </style>
    <g id="Layer_4" >
        <path class="st0" d="M340.4 238.6c-17.4-18.4-46.4-19.2-64.8-1.9-18.4 17.4-19.2 46.4-1.9 64.8 17.4 18.4 46.4 19.2 64.8 1.9 18.4-17.4 19.2-46.4 1.9-64.8z"/>
        <path class="st0" d="M338.5 303.4l110.4 164 50.2-47.3z"/>
    </g>
    <g id="STROKES" >
        <g id="XMLID_1_" >
            <path class="st1" d="M461.3 471.1l20.4-19.2 27.9-26.4 133.8-126.4" />
            <path class="st1" d="M317.2 607.2l143.9-135.9"/>
            <path class="st1" d="M338.5 303.4c18.4-17.4 19.2-46.4 1.9-64.8-17.4-18.4-46.4-19.2-64.8-1.9-18.4 17.4-19.2 46.4-1.9 64.8 17.4 18.4 46.4 19.3 64.8 1.9z"/>
            <path class="st1" d="M259.7 219.9l15.9 16.9"/>
            <path class="st1" d="M312.6 602.4l4.6 4.8 4.6 4.9"/>
            <path class="st1" d="M638.9 294.3l4.5 4.8 4.6 4.9"/>
            <path class="st1" d="M338.5 303.4l110.4 164 50.2-47.3z"/>
            <path class="st1" d="M315.6 316.8c-45.8 43.2-55.1 107.7-11.9 153.5 43.2 45.7 111.6 44 157.4.9l.2-.2"/>
            <path class="st1" d="M436.4 497.9c.7 1.4-13.7 71.4 24.9 105.1 38.7 33.6 92.1-4.4 92.1-4.4"/>
            <path class="st1" d="M643.1 513.8c-.7-1.4 13.6-63-25.1-96.7-13.4-11.7-30.3-14-46.8-12.1-31 3.6-60.1 22.2-60.1 22.2"/>
            <path class="st1" d="M494 595.6s-10.4-42.3 31.3-97.5c3.9-5.2 8.3-10.5 13.2-15.9 33.7-37.1 36.3-62.6 32.8-77.2-2.4-10.1-7.7-15-7.7-15"/>
            <path class="st1" d="M481.7 451.9l43.6 46.1 1135 1202.1"/>
        </g>
    </g>
</svg>
