<?xml version="1.0" encoding="utf-8"?>
<!-- Uploaded to: SVG Repo, www.svgrepo.com, Generator: SVG Repo Mixer Tools -->
<svg width="800px" height="800px" viewBox="0 0 1024 1024" class="icon"  version="1.1" xmlns="http://www.w3.org/2000/svg"><path d="M664.4 702.2c0 27.9-22.7 50.5-50.6 50.5H411.4c-28 0-50.6-22.6-50.6-50.5V360.4c0-27.9 22.7-50.5 50.6-50.5h202.5c28 0 50.6 22.6 50.6 50.5v341.8z" fill="#E74C3C" /><path d="M389.2 322.8s-22.1 126.5 126.6 126.5 124.4-126.5 124.4-126.5M577.9 563H447.3c-19.9 0-36 17.4-36 39v87.6h202.5V602c0-21.6-16.1-39-35.9-39z" fill="#F4867B" /><path d="M631 299.6v-0.1c-1.1-0.3-2.6-0.6-4.5-0.8v-14.1c0-14-11.3-25.3-25.3-25.3h-37.9c-14 0-25.3 11.4-25.3 25.3v12.7h-49.8v-12.7c0-14-11.4-25.3-25.3-25.3H425c-14 0-25.3 11.4-25.3 25.3v14c-2.3 0.3-4.1 0.7-5.4 1v0.1c-26.6 7.5-46.1 31.8-46.1 60.7v341.9c0 34.8 28.4 63.1 63.3 63.1h202.4c34.9 0 63.3-28.3 63.3-63.1V360.4c-0.1-28.9-19.7-53.3-46.2-60.8z m-67.8-15h37.9v12.7h-37.9v-12.7z m50.6 37.9c3.3 0 6.5 0.5 9.6 1.3 0 0.4 0 0.7 0.1 1.1 0.1 0.8 7.2 45.9-19.8 77.9-17.6 20.8-46.2 32-84.8 33.5v-18.7c0-3.5-2.8-6.3-6.3-6.3s-6.3 2.8-6.3 6.3v18.7c-38.7-1.6-67.2-12.8-84.8-33.5-27-32-19.9-77.1-19.8-77.9 0.1-0.4 0-0.7 0.1-1.1 3.1-0.8 6.3-1.3 9.6-1.3h202.4zM512.6 499.9c3.5 0 6.3-2.8 6.3-6.3v-6.3h6.3v25.3h-25.4v-25.3h6.3v6.3c0.2 3.5 3 6.3 6.5 6.3z m-87.7-215.3h37.9v12.7h-37.9v-12.7z m226.9 417.6c0 20.9-17 37.8-38 37.8H411.4c-20.9 0-38-17-38-37.8v-7.9c6.8 4.8 15.2 7.8 25.6 7.8H626.2c10.4 0 18.8-3 25.6-7.8v7.9zM424 676.9V602c0-14.5 10.5-26.3 23.3-26.3h130.6c12.8 0 23.3 11.8 23.3 26.3v74.9H424z m227.8-42.7c0 0.7-0.6 42.3-25.3 42.7V602c0-28.5-21.8-51.6-48.6-51.6H447.3c-26.8 0-48.6 23.2-48.6 51.6v74.9c-24.7-0.4-25.3-42-25.3-42.7V360.4c0-4.4 0.8-8.6 2.2-12.6 1.1 20 6.7 47.7 26.3 71.1 22.5 26.8 57.7 41 104.3 42.7v13h-12.7c-3.5 0-6.3 2.8-6.3 6.3v38c0 3.5 2.8 6.3 6.3 6.3h38c3.5 0 6.3-2.8 6.3-6.3v-38c0-3.5-2.8-6.3-6.3-6.3h-12.7v-13c46.7-1.7 81.8-16 104.3-42.7 19.6-23.4 25.2-51 26.3-71.1 1.4 3.9 2.2 8.2 2.2 12.6v273.8z" fill="#211F1E" /></svg>