<svg width="12" height="13" viewBox="0 0 12 13" fill="none" xmlns="http://www.w3.org/2000/svg">
<path d="M12 2.375C12 2.82031 11.6484 3.19531 11.0859 3.5C10.4062 3.89844 9.39844 4.15625 8.22656 4.22656C8.13281 4.20312 8.03906 4.15625 7.96875 4.10938C7.03125 3.73438 5.8125 3.5 4.5 3.5C4.28906 3.5 4.10156 3.52344 3.91406 3.52344L3.89062 3.5C3.32812 3.19531 3 2.82031 3 2.375C3 1.34375 4.99219 0.5 7.5 0.5C9.98438 0.5 12 1.34375 12 2.375ZM3.75 4.29688C3.98438 4.27344 4.24219 4.25 4.5 4.25C5.95312 4.25 7.24219 4.55469 8.0625 5C8.64844 5.30469 9 5.70312 9 6.125C9 6.21875 8.97656 6.3125 8.92969 6.40625C8.83594 6.71094 8.53125 6.99219 8.10938 7.25H8.08594C7.26562 7.71875 5.95312 8 4.5 8C3.09375 8 1.85156 7.74219 1.00781 7.32031C0.960938 7.29688 0.9375 7.27344 0.890625 7.25C0.328125 6.94531 0 6.54688 0 6.125C0 5.32812 1.24219 4.625 3 4.36719C3.23438 4.32031 3.49219 4.29688 3.75 4.29688ZM9.16406 4.88281C9.84375 4.78906 10.4531 4.625 10.9688 4.41406C11.3438 4.25 11.6953 4.03906 12 3.80469V4.625C12 5.09375 11.6016 5.51562 10.9688 5.82031C10.6172 6.00781 10.1953 6.14844 9.72656 6.26562C9.72656 6.21875 9.75 6.17188 9.75 6.125C9.75 5.63281 9.49219 5.21094 9.16406 4.88281ZM9 8.375C9 8.79688 8.64844 9.19531 8.08594 9.5C8.03906 9.52344 8.01562 9.54688 7.96875 9.57031C7.125 9.99219 5.88281 10.25 4.5 10.25C3.02344 10.25 1.71094 9.96875 0.890625 9.5C0.328125 9.19531 0 8.79688 0 8.375V7.55469C0.28125 7.78906 0.632812 8 1.00781 8.16406C1.94531 8.53906 3.16406 8.75 4.5 8.75C5.8125 8.75 7.03125 8.53906 7.96875 8.16406C8.13281 8.07031 8.32031 8 8.48438 7.90625C8.625 7.8125 8.76562 7.71875 8.88281 7.625C8.92969 7.60156 8.95312 7.57812 9 7.55469V8.375ZM9.75 7.03906C10.1719 6.92188 10.5938 6.80469 10.9688 6.66406C11.3438 6.5 11.6953 6.28906 12 6.05469V6.875C12 7.13281 11.8828 7.36719 11.6484 7.60156C11.25 8 10.5938 8.30469 9.72656 8.51562C9.72656 8.46875 9.75 8.42188 9.75 8.375V7.03906ZM4.5 11C5.8125 11 7.03125 10.7891 7.96875 10.4141C8.34375 10.25 8.69531 10.0391 9 9.80469V10.625C9 11.6797 6.98438 12.5 4.5 12.5C1.99219 12.5 0 11.6797 0 10.625V9.80469C0.28125 10.0391 0.632812 10.25 1.00781 10.4141C1.94531 10.7891 3.16406 11 4.5 11Z" fill="#FFD700"/>
</svg>
