<?xml version="1.0" encoding="utf-8"?>

<!DOCTYPE svg PUBLIC "-//W3C//DTD SVG 1.1//EN" "http://www.w3.org/Graphics/SVG/1.1/DTD/svg11.dtd">
<!-- Uploaded to: SVG Repo, www.svgrepo.com, Generator: SVG Repo Mixer Tools -->
<svg height="800px" width="800px" version="1.1" id="_x32_" xmlns="http://www.w3.org/2000/svg" xmlns:xlink="http://www.w3.org/1999/xlink" 
	 viewBox="0 0 512 512"  xml:space="preserve">
<style type="text/css">
	.st0{fill:#000000;}
</style>
<g>
	<path class="st0" d="M170.668,228.138c0-3.863-3.135-6.982-6.982-6.982c-3.863,0-6.982,3.12-6.982,6.982
		c0,3.864,3.119,6.983,6.982,6.983C167.533,235.12,170.668,232.001,170.668,228.138z"/>
	<path class="st0" d="M348.314,235.12c3.863,0,6.982-3.119,6.982-6.983c0-3.863-3.119-6.982-6.982-6.982
		c-3.847,0-6.982,3.12-6.982,6.982C341.332,232.001,344.467,235.12,348.314,235.12z"/>
	<path class="st0" d="M193.784,206.431c-4.987,3.349-10.054,6.357-15.374,8.708v24.414c4.734,0.333,9.927,0.586,15.374,0.752
		V206.431z"/>
	<path class="st0" d="M265.302,177.337c-2.375-0.396-4.814-0.593-7.315-0.593c-2.47,0-4.892,0.198-7.283,0.593v63.182h14.598
		V177.337z"/>
	<path class="st0" d="M231.134,184.288c-5.019,2.715-9.832,5.898-14.566,9.238v46.707c5.051,0.119,9.943,0.159,14.566,0.206V184.288
		z"/>
	<path class="st0" d="M333.59,215.851c-5.019-2.232-9.832-5.09-14.566-8.281v32.189c5.13-0.158,10.07-0.396,14.566-0.72V215.851z"/>
	<path class="st0" d="M299.438,193.527c-4.734-3.341-9.58-6.563-14.598-9.238v56.152c4.608-0.047,9.547-0.087,14.598-0.206V193.527z
		"/>
	<path class="st0" d="M415.351,497.6l-0.57,0.079c-0.032,0-0.079,0.008-0.111,0.016L415.351,497.6z"/>
	<path class="st0" d="M496.797,469.528l-1.125-6.294c-3.277-18.572-9.547-31.911-14.772-40.422c0.459-0.198,0.966-0.435,1.409-0.626
		l0.348-0.142l3.783-1.623l5.131-2.209l-3.895-9.009l-0.095-0.222c-10.196-23.686-26.52-37.659-42.354-45.076
		c-15.817-7.457-30.969-8.779-40.248-8.795h-0.015c-2.787,0-5.066,0.126-6.698,0.261c-0.808,0.064-1.472,0.136-1.932,0.19
		l-0.57,0.063l-0.158,0.016l-0.048,0.007v0.008l-1.171,0.158l-1.362,0.206l-10.814,7.901h-9.896c-0.11-6-2.628-11.479-6.492-15.69
		l-0.19-0.206l0.19,0.221c-3.894-4.274-8.977-7.465-14.883-9.966l-0.015-0.008c-0.586-0.237-1.726-1.045-3.056-3.143l-0.032-0.056
		c-1.94-3-3.816-8.597-4.861-14.614c-1.093-6.072-1.536-12.682-1.536-18.12v-0.016v-0.032c0-1.338,0.048-2.542,0.095-3.698
		c1.505-2.335,3.025-4.686,4.592-7.132c6.824-10.68,13.87-22.523,19.174-36.02c4.434-2.922,7.711-7.038,9.358-11.67
		c1.836-5.042,2.09-10.03,2.106-14.898v-0.024v-0.032c-0.064-6.048,0.015-12.856-3.342-19.665l-0.016-0.047
		c-1.393-2.731-3.444-5.241-6.064-7.228c-1.931-27.803-12.793-54.624-30.906-75.246c-6.555-7.466-14.122-14.02-22.466-19.546
		c0.142-0.253,0.332-0.483,0.475-0.736c2.612-4.75,3.625-9.682,3.625-14.138c-0.016-5.241-1.33-9.785-3.072-13.332l-0.016-0.024
		c-0.159-0.317-0.365-0.538-0.523-0.831c1.568-3.65,2.676-7.869,2.66-12.603c0.016-7.837-2.977-16.086-8.993-24.447
		c-0.206-6.127-2.288-11.772-5.368-16.553L303,24.778l-0.269-0.412l-0.016-0.023c-4.924-7.553-12.208-13.411-20.298-17.598
		l-0.016-0.008C274.279,2.572,265.16,0.024,256.008,0h-0.032c-12.176,0.055-24.351,4.488-34.152,11.487l-0.016,0.008
		c-4.892,3.531-9.263,7.798-12.54,12.857c-3.103,4.789-5.193,10.449-5.399,16.608c-6.016,8.368-9.008,16.609-8.992,24.462
		c-0.016,4.718,1.06,8.946,2.628,12.618c-2.043,3.753-3.531,8.527-3.578,14.14v0.032c0,4.457,1.013,9.389,3.625,14.147
		c0.143,0.253,0.332,0.482,0.475,0.728c-8.344,5.526-15.912,12.081-22.483,19.546c-18.128,20.662-29.006,47.538-30.906,75.381
		c-1.742,1.338-3.309,2.818-4.528,4.552c-2.596,3.744-3.704,7.806-4.259,11.471v0.016c-0.554,3.704-0.618,7.307-0.618,10.806v0.024
		c0.016,3.23,0.127,6.524,0.744,9.888c0.602,3.348,1.774,6.792,3.848,9.998l0.016,0.016c1.758,2.7,4.148,4.964,6.904,6.769
		c5.288,13.442,12.318,25.254,19.126,35.91c1.552,2.43,3.072,4.773,4.56,7.093c0.048,1.195,0.111,2.367,0.111,3.728v0.063
		c0.016,7.252-0.808,16.61-2.819,23.924c-0.997,3.658-2.311,6.832-3.594,8.859c-1.314,2.074-2.438,2.881-3.04,3.135l-0.048,0.016
		c-5.89,2.501-10.972,5.692-14.867,9.974v-0.023c-3.863,4.211-6.396,9.698-6.507,15.69h-9.88l-10.814-7.901l-2.455-0.356
		l-0.063-0.008h-0.015v-0.008c-0.475-0.055-4.006-0.546-9.405-0.538h-0.016c-9.279,0.016-24.43,1.338-40.248,8.795l-0.712,0.341
		l0.666-0.317c-15.834,7.434-32.11,21.399-42.306,45.053l-1.773,4.093l-2.217,5.13l7.964,3.428l1.283,0.554
		c0.46,0.19,0.966,0.42,1.425,0.626c-5.224,8.51-11.494,21.858-14.772,40.43l-0.506,2.786l-0.618,3.5l5.384,3.776l-0.127-0.095
		c21.296,14.733,51.569,21.034,76.869,24.486h0.016c21.976,2.889,40.106,3.278,44.697,3.324c7.077,1.639,48.338,10.949,90.185,10.98
		c7.979,0,15.959-0.372,23.765-1.195c7.822,0.823,15.801,1.195,23.766,1.195c41.862-0.032,83.124-9.341,90.2-10.98
		c4.592-0.047,22.72-0.435,44.697-3.324l0.126-0.016c25.27-3.451,55.48-9.753,76.743-24.462l2.359-1.647L496.797,469.528z
		 M389.543,376.509l9.073-6.618c1.203-0.119,3.388-0.285,6.349-0.285c7.884,0,20.963,1.196,34.072,7.41
		c12.208,5.803,24.478,15.881,33.281,33.717c-31.444,13.798-78.849,37.627-97.563,47.126L389.543,376.509z M209.585,86.235
		c1.299,1.409,2.581,2.707,3.689,3.784c1.631,1.535,2.992,2.81,3.484,3.427l6.856-5.7c-1.204-1.433-2.613-2.684-4.18-4.18
		c-2.328-2.217-4.908-4.837-6.84-7.862c-1.932-3.04-3.23-6.349-3.23-10.283c0-3.183,0.902-6.983,3.372-11.495
		c1.124,2.003,2.438,3.974,4.148,5.859l6.602-6.001c-3.848-4.283-5.193-8.146-5.208-11.859c0-3.214,1.076-6.476,3.166-9.698
		c3.103-4.829,8.486-9.381,14.772-12.602c6.27-3.239,13.41-5.146,19.775-5.131c8.502-0.039,18.35,3.412,25.728,8.756
		c3.689,2.652,6.761,5.756,8.835,8.977c2.074,3.222,3.166,6.484,3.166,9.698c-0.032,3.706-1.362,7.576-5.209,11.859l6.586,6.001
		c1.726-1.885,3.024-3.856,4.164-5.859c2.47,4.512,3.357,8.312,3.357,11.495c0,5.216-2.296,9.46-5.336,13.173
		c-1.52,1.844-3.183,3.49-4.734,4.972c-1.552,1.496-2.961,2.746-4.18,4.18l6.856,5.7c0.507-0.618,1.852-1.892,3.483-3.427
		c1.124-1.077,2.391-2.336,3.689-3.745l0.269,0.626c0.538,1.512,0.903,3.364,0.903,5.312c0,2.303-0.491,4.71-1.821,7.156
		c-0.902,1.615-2.232,3.253-4.069,4.876c-11.304-5.248-23.798-8.439-37.224-9.017V29.924h-8.914v65.303
		c-13.442,0.578-25.934,3.769-37.24,9.017c-1.836-1.623-3.166-3.261-4.053-4.876c-1.346-2.438-1.836-4.853-1.836-7.156
		C208.414,89.963,208.936,87.85,209.585,86.235z M186.437,136.203c17.163-19.474,41.071-32.172,69.555-32.188
		c28.468,0.016,52.391,12.714,69.57,32.188c15.865,18.034,25.65,41.918,27.392,66.46l-1.046-0.143h-0.095h-0.11
		c-6.016,0.008-12.208-2.32-18.889-6.23c-10.038-5.834-20.821-15.065-33.202-22.998c-12.382-7.9-26.631-14.542-43.62-14.542
		c-11.305-0.008-21.454,2.952-30.574,7.259c-13.695,6.476-25.27,15.92-35.909,23.48c-5.32,3.792-10.386,7.109-15.247,9.421
		c-4.861,2.311-9.452,3.61-13.965,3.61h-0.126h-0.08l-1.06,0.143C160.788,178.113,170.557,154.237,186.437,136.203z M150.94,238.786
		c-0.871-2.311-1.235-5.653-1.219-9.919c-0.047-5.859,0.38-10.616,1.757-13.134c0.681-1.282,1.425-2.098,2.708-2.842
		c1.299-0.721,3.294-1.314,6.318-1.465v-0.016c8.264-0.056,15.881-3.167,23.18-7.418c11.051-6.484,21.77-15.722,33.502-23.18
		c11.732-7.48,24.225-13.149,38.807-13.149c9.753,0.008,18.508,2.509,26.773,6.412c12.414,5.834,23.592,14.859,34.548,22.68
		c5.494,3.911,10.924,7.513,16.592,10.204c5.573,2.652,11.416,4.418,17.575,4.457v0.008c3.04,0.151,5.035,0.752,6.318,1.465
		c0.982,0.554,1.631,1.163,2.185,1.963c0.84,1.187,1.473,2.961,1.837,5.368c0.38,2.399,0.459,5.351,0.459,8.645
		c0.032,5.731-0.649,9.642-2.232,11.962c-0.808,1.195-1.837,2.193-3.546,3.143c-1.726,0.934-4.164,1.781-7.505,2.382
		c-9.199,1.671-27.391,3.309-45.71,4.489c-18.334,1.188-36.954,1.94-47.293,1.94c-10.339,0-28.959-0.752-47.294-1.94
		c-18.303-1.18-36.511-2.818-45.709-4.489c-3.326-0.602-5.764-1.448-7.49-2.382C152.935,242.514,151.842,241.089,150.94,238.786z
		 M166.709,351.62c4.18-1.774,7.315-5.012,9.674-8.764c3.546-5.66,5.589-12.674,6.887-19.854c0.712-3.95,1.156-7.94,1.425-11.78
		c1.916,3.419,3.721,6.8,5.146,10.125l8.185-3.531c-3.484-8.059-8.249-15.88-13.316-23.813l-0.032-0.364l-0.19,0.016
		c-2.106-3.302-4.259-6.618-6.412-9.999c-5.748-8.978-11.4-18.327-15.88-28.404c10.164,1.75,27.85,3.309,45.931,4.489
		c16.134,1.045,32.411,1.758,43.414,1.916v88.546h8.914v-88.546c11.004-0.158,27.265-0.871,43.398-1.916
		c18.082-1.18,35.783-2.739,45.948-4.489c-4.481,10.077-10.133,19.427-15.881,28.404c-2.153,3.38-4.307,6.697-6.412,9.999
		l-0.191-0.016v-0.008l-0.032,0.372c-5.066,7.94-9.832,15.754-13.315,23.813l8.185,3.531c1.441-3.332,3.23-6.729,5.161-10.156
		c0.444,6.166,1.315,12.745,2.977,18.904c1.267,4.615,2.945,8.993,5.32,12.769c2.359,3.744,5.494,6.982,9.674,8.756l0.824,0.388
		c-2.058,2.026-5.209,4.608-9.278,7.339c-15.881,10.655-45.346,23.686-81.113,23.67h-0.76c-23.861,0-44.871-5.763-60.973-12.793
		c-8.043-3.515-14.852-7.339-20.14-10.877c-3.799-2.55-6.792-4.964-8.85-6.919C165.569,352.15,166.092,351.881,166.709,351.62z
		 M156.893,358l0.555-0.546c2.691,2.818,6.444,5.937,11.431,9.286c17.242,11.542,48.117,25.166,86.085,25.19h0.76
		c25.301,0,47.483-6.088,64.551-13.537c8.518-3.721,15.77-7.79,21.517-11.653c5.384-3.61,9.373-6.967,12.065-9.944l1.251,1.204
		c1.995,2.225,2.755,4.22,2.771,6.381c0,2.399-1.061,5.439-4.085,9.048c-2.993,3.586-7.869,7.576-14.741,11.614
		c-10.941,6.428-27.059,12.112-42.765,16.07c-15.658,3.966-31.064,6.254-40.295,6.239c-9.231,0.015-24.636-2.272-40.295-6.239
		c-15.69-3.958-31.824-9.642-42.749-16.07c-6.887-4.03-11.748-8.027-14.741-11.605c-3.024-3.61-4.085-6.65-4.085-9.049
		C154.138,362.22,154.898,360.225,156.893,358z M72.962,377.016c13.11-6.214,26.188-7.41,34.073-7.41
		c2.359,0,4.244,0.103,5.526,0.206l0.839,0.08l9.056,6.618l14.788,81.35c-18.715-9.499-66.119-33.328-97.564-47.126
		C48.484,392.897,60.754,382.819,72.962,377.016z M138.78,486.454c-8.359-0.206-27.644-1.076-48.845-4.497
		c-20.915-3.332-43.541-9.357-58.756-19.11c2.771-13.719,7.283-23.908,11.194-30.7c2.09-3.626,3.989-6.294,5.351-8.028
		c16.91,7.726,36.511,17.25,53.357,25.587c11.258,5.573,21.296,10.615,28.5,14.265c4.085,2.066,7.22,3.658,9.198,4.679V486.454z
		 M364.305,473.218v14.234c-11.098,2.478-48.211,10.07-84.548,10.062c-6.54,0-13-0.324-19.301-0.879v-47.435h-8.914v47.435
		c-6.317,0.554-12.777,0.879-19.301,0.879c-21.738,0-43.778-2.715-60.355-5.422c-8.281-1.362-15.2-2.724-20.044-3.744
		c-1.662-0.357-2.993-0.641-4.149-0.895v-14.234l1.552,0.791l-17.384-95.6h18.952l0.554,0.752
		c3.926,4.679,9.579,9.176,17.067,13.577c12.192,7.125,28.833,12.904,45.077,17.013c16.26,4.1,31.951,6.499,42.48,6.515
		c10.528-0.016,26.235-2.415,42.496-6.515c16.245-4.109,32.885-9.888,45.061-17.013c7.505-4.401,13.157-8.906,17.084-13.585
		l0.538-0.744h18.968l-17.385,95.6L364.305,473.218z M412.755,483.319c-12.144,1.607-23.18,2.414-31.159,2.818
		c-3.42,0.174-6.239,0.269-8.376,0.324V468.65c1.979-1.022,5.114-2.613,9.198-4.679c18.018-9.12,53.659-26.956,81.857-39.852
		c3.879,4.948,12.286,17.615,16.546,38.704C463.309,474.072,435.998,480.303,412.755,483.319z"/>
	<path class="st0" d="M373.378,209.044l0.032,0.063c0,0,0.008,0.023,0.016,0.032L373.378,209.044z"/>
	<polygon class="st0" points="374.676,243.757 374.661,243.772 374.661,243.797 	"/>
</g>
</svg>