<?xml version="1.0" encoding="iso-8859-1"?>
<!-- Uploaded to: SVG Repo, www.svgrepo.com, Generator: SVG Repo Mixer Tools -->
<!DOCTYPE svg PUBLIC "-//W3C//DTD SVG 1.1//EN" "http://www.w3.org/Graphics/SVG/1.1/DTD/svg11.dtd">
<svg fill="white" height="800px" stroke-width="2" width="800px" version="1.1" id="Capa_1" xmlns="http://www.w3.org/2000/svg" xmlns:xlink="http://www.w3.org/1999/xlink" 
	 viewBox="0 0 450.909 450.909" xml:space="preserve">
<g>
	<path d="M422.866,168.066C450.64,115.99,445.953,8.598,445.739,4.052c-0.11-2.344-2.1-4.172-4.444-4.046
		c-2.345,0.11-4.156,2.099-4.047,4.444c0.016,0.35,0.514,11.766,0.303,28.75h-39.471c-2.347,0-4.25,1.903-4.25,4.25
		c0,2.347,1.903,4.25,4.25,4.25h39.312c-0.122,4.877-0.306,10.075-0.574,15.5h-98.738c-2.347,0-4.25,1.903-4.25,4.25
		c0,2.347,1.903,4.25,4.25,4.25h98.261c-2.134,33.562-7.611,73.307-20.976,98.366c-15.622,29.291-22.667,99.772-23.953,151.228
		c-0.89,35.591,0.495,75.247,5.811,102.906h-69.308c-2.347,0-4.25,1.903-4.25,4.25s1.903,4.25,4.25,4.25h71.167
		c2.588,10.419,5.896,18.438,10.046,22.866c0.837,0.893,1.968,1.343,3.102,1.343c1.042,0,2.086-0.381,2.906-1.149
		c1.712-1.605,1.799-4.295,0.194-6.007c-10.852-11.575-17.049-63.114-15.42-128.246
		C401.573,248.968,410.584,191.094,422.866,168.066z"/>
	<path d="M59.497,315.294c-1.287-51.456-8.332-121.937-23.954-151.227C22.837,140.241,17.262,103.141,14.91,70.7h67.171
		c2.347,0,4.25-1.903,4.25-4.25s-1.903-4.25-4.25-4.25H14.356c-0.394-6.859-0.653-13.42-0.814-19.5h30.972
		c2.347,0,4.25-1.903,4.25-4.25c0-2.347-1.903-4.25-4.25-4.25H13.37c-0.244-17.539,0.274-29.393,0.291-29.75
		c0.11-2.345-1.702-4.334-4.046-4.444C7.271-0.115,5.28,1.707,5.17,4.053c-0.213,4.546-4.9,111.938,22.873,164.014
		c12.282,23.028,21.292,80.901,22.956,147.44c1.628,65.133-4.568,116.671-15.42,128.246c-1.605,1.712-1.519,4.402,0.194,6.007
		c0.82,0.768,1.864,1.149,2.906,1.149c1.134,0,2.265-0.451,3.102-1.343C56.914,433.423,60.855,369.62,59.497,315.294z"/>
	<path d="M77.13,294.122c-2.345,0.107-4.159,2.094-4.052,4.439c3.253,71.498-2.981,132.56-14.823,145.191
		c-1.605,1.712-1.518,4.402,0.194,6.007c0.82,0.768,1.864,1.149,2.906,1.149c1.134,0,2.265-0.451,3.101-1.343
		c15.813-16.866,19.989-88.189,17.113-151.392C81.463,295.829,79.475,294.025,77.13,294.122z"/>
	<path d="M65.606,199.422c-2.296,0.487-3.763,2.743-3.276,5.039c3.611,17.037,6.584,38.278,8.598,61.427
		c0.192,2.213,2.048,3.882,4.229,3.882c0.123,0,0.248-0.005,0.373-0.017c2.338-0.203,4.069-2.264,3.866-4.602
		c-2.043-23.488-5.069-45.084-8.751-62.453C70.159,200.403,67.9,198.935,65.606,199.422z"/>
	<path d="M226.949,163.861c1.588,0.503,2.603,1.932,2.801,3.479c2.041,4.05,9.134,10.53,17.939,10.824
		c7.746,0.258,14.916,0.121,22.507-0.024c23.871-0.459,48.555-0.93,95.044,10.473c2.28,0.559,3.675,2.86,3.115,5.14
		c-0.476,1.939-2.212,3.239-4.124,3.239c-0.335,0-0.676-0.04-1.016-0.124c-45.413-11.139-69.534-10.678-92.857-10.229
		c-7.705,0.147-14.983,0.286-22.953,0.021c-9.32-0.311-17.234-5.355-21.951-10.759c-4.718,5.404-12.632,10.448-21.951,10.759
		c-7.969,0.265-15.248,0.126-22.952-0.021c-23.328-0.448-47.446-0.909-92.858,10.23c-0.34,0.083-0.68,0.124-1.016,0.124
		c-1.912,0-3.648-1.299-4.124-3.239c-0.56-2.279,0.835-4.581,3.115-5.14c46.49-11.403,71.174-10.931,95.045-10.474
		c7.59,0.145,14.761,0.282,22.506,0.024c8.805-0.293,15.898-6.773,17.939-10.824c0.199-1.548,1.228-2.931,2.801-3.479
		C223.961,163.861,225.503,163.403,226.949,163.861z"/>
	<path d="M138.006,245.82c-2.062-1.124-4.642-0.364-5.766,1.696c-0.364,0.667-8.975,16.647-14.491,43.5
		c-5.071,24.688-8.326,63.626,4.963,108.929c0.543,1.853,2.238,3.055,4.076,3.055c0.396,0,0.799-0.056,1.198-0.173
		c2.252-0.661,3.543-3.022,2.882-5.275c-12.752-43.472-9.683-80.813-4.863-104.484c5.236-25.714,13.615-41.331,13.699-41.486
		C140.825,249.522,140.065,246.943,138.006,245.82z"/>
	<path d="M328.198,399.945c13.289-45.303,10.034-84.241,4.962-108.929c-5.516-26.853-14.127-42.833-14.491-43.5
		c-1.124-2.061-3.707-2.821-5.766-1.696c-2.061,1.124-2.82,3.706-1.696,5.766c0.336,0.616,33.305,62.543,8.835,145.966
		c-0.661,2.253,0.629,4.614,2.882,5.275c0.399,0.117,0.802,0.173,1.198,0.173C325.959,402.999,327.654,401.798,328.198,399.945z"/>
	<path d="M225.455,160.839c2.347,0,4.25-1.903,4.25-4.25V37.23c0-2.347-1.903-4.25-4.25-4.25c-2.347,0-4.25,1.903-4.25,4.25v119.358
		C221.205,158.936,223.107,160.839,225.455,160.839z"/>
	<path d="M229.705,238.074c0-2.347-1.903-4.25-4.25-4.25c-2.347,0-4.25,1.903-4.25,4.25v118.211c0,2.347,1.903,4.25,4.25,4.25
		c2.347,0,4.25-1.903,4.25-4.25V238.074z"/>
	<path d="M225.455,378.431c-2.347,0-4.25,1.903-4.25,4.25v17.215c0,2.347,1.903,4.25,4.25,4.25c2.347,0,4.25-1.903,4.25-4.25
		v-17.215C229.705,380.334,227.802,378.431,225.455,378.431z"/>
	<path d="M74.876,140.521c0,7.406,6.025,13.432,13.431,13.432s13.431-6.025,13.431-13.432c0-7.406-6.025-13.431-13.431-13.431
		S74.876,133.115,74.876,140.521z M88.307,135.59c2.719,0,4.931,2.212,4.931,4.931c0,2.719-2.212,4.932-4.931,4.932
		s-4.931-2.212-4.931-4.932C83.376,137.802,85.588,135.59,88.307,135.59z"/>
	<path d="M376.034,140.521c0-7.406-6.025-13.431-13.432-13.431c-7.406,0-13.431,6.025-13.431,13.431
		c0,7.406,6.025,13.432,13.431,13.432C370.008,153.952,376.034,147.927,376.034,140.521z M357.671,140.521
		c0-2.719,2.212-4.931,4.931-4.931c2.719,0,4.932,2.212,4.932,4.931c0,2.719-2.212,4.932-4.932,4.932
		C359.883,145.452,357.671,143.24,357.671,140.521z"/>
	<path d="M289.455,435.2h-128c-2.347,0-4.25,1.903-4.25,4.25s1.903,4.25,4.25,4.25h128c2.347,0,4.25-1.903,4.25-4.25
		S291.802,435.2,289.455,435.2z"/>
</g>
</svg>
