<?xml version="1.0" ?><!-- Uploaded to: SVG Repo, www.svgrepo.com, Generator: SVG Repo Mixer Tools -->
<svg fill="#000000" width="800px" height="800px" viewBox="0 0 750 750" id="Layer_1" xmlns="http://www.w3.org/2000/svg"><path d="M519.08,237.3c-2.83,51.78,1.02,103.14,9.45,154.24,1.35,8.15,1.32,16.56,1.52,24.86,.29,11.77-2.79,22.82-10.54,31.7-13.2,15.12-25.81,31.12-40.93,44.12-31.36,26.97-59.83,56.29-84.87,89.23-9.19,12.09-20.27,23.01-31.72,33.05-20.74,18.2-45.84,23.02-72.51,19.09-20-2.95-36.25-13.47-47.36-30.23-24.18-36.5-30.42-75.16-9.68-115.37,15.4-29.87,35.98-55.88,62.75-76.6,11.07-8.57,22.26-17.01,33.61-25.2,6.37-4.6,10.23-10.38,11.97-18.05,9.4-41.35,19.82-82.62,22.94-125,1.99-26.97,.96-54.18,.82-81.28-.02-4.07-2.84-8.06-3.98-12.2-1.25-4.55-3.08-9.28-2.84-13.84,.5-9.48,6.49-15.21,16.07-15.67,38.45-1.86,76.91-3.64,115.38-4.99,15.36-.54,21.37,3.96,25.59,18.9,2.35,8.34,3.96,17.15,4.14,25.78,.53,25.8,.19,51.63,.19,77.44Zm-128.93-4.69c0,6.46-.03,11.61,0,16.76,.32,46.27-6.13,91.41-21.24,135.32-5.08,14.75-13.5,26.09-26.6,34.47-18.42,11.78-36.78,23.67-54.71,36.17-19.64,13.7-35.31,30.79-45.67,52.96-11.93,25.51,6.47,69.38,39.35,77.23,19.29,4.61,37.33,1.15,54.82-6.75,14.96-6.75,27.43-17.18,38.69-28.89,18.49-19.24,36.57-38.86,54.75-58.39,1.4-1.5,2.22-3.53,3.2-5.13-25.56-37.6-24.69-77.1-9.73-117.07,9.71-25.93,28.91-42.14,56.82-47.01,5.95-1.04,11.84-2.45,18.76-3.89,1.58-28.47-.84-56.45-3.23-84.97-35.17-4.8-69.04-5.29-105.21-.81Zm108.45,125.36c-28.37,1.32-45.88,12.43-53.09,35.57-7.39,23.74-10.87,47.68,7.8,68.52,2.13-.65,3.24-.64,3.71-1.18,13.75-15.83,27.51-31.66,41.06-47.66,1.58-1.86,2.87-4.75,2.79-7.11-.53-16.06-1.47-32.11-2.27-48.15Zm-111.12-165.31h106.55c-.93-13.48-1.83-26.65-2.71-39.38-17.17-2.85-98.11,3.07-108.23,7.72,1.45,10.46,2.92,21.11,4.38,31.66Z"/></svg>