<?xml version="1.0" ?>
<!DOCTYPE svg  PUBLIC '-//W3C//DTD SVG 1.1//EN'  'http://www.w3.org/Graphics/SVG/1.1/DTD/svg11.dtd'>
<!-- Uploaded to: SVG Repo, www.svgrepo.com, Generator: SVG Repo Mixer Tools -->
<svg fill="#000000" width="800px" height="800px" viewBox="0 0 512 512" enable-background="new 0 0 512 512" id="Jeans" version="1.1" xml:space="preserve" xmlns="http://www.w3.org/2000/svg" xmlns:xlink="http://www.w3.org/1999/xlink">
<g>
<path d="M341.43,397.22c-1.877-0.063-3.502,1.423-3.568,3.327l-0.041,1.158c-0.066,1.903,1.424,3.502,3.328,3.568   c0.04,0.001,0.082,0.002,0.122,0.002c1.85,0,3.381-1.467,3.445-3.33l0.041-1.158C344.822,398.884,343.334,397.286,341.43,397.22z"/>
<path d="M340.536,421.38c-1.903-0.11-3.511,1.398-3.591,3.303c-0.934,22.345-1.897,38.288-2.865,47.464   c-6.872,2.357-31.571,9.479-56.355,0.109l-18.28-333.594c-0.101-1.83-1.612-3.262-3.444-3.262c-1.832,0-3.345,1.432-3.444,3.262   l-18.28,333.595c-24.778,9.362-49.479,2.243-56.344-0.11c-3.634-34.392-6.392-155.878-8.079-252.846   c-0.032-1.905-1.606-3.365-3.509-3.391c-1.905,0.034-3.422,1.605-3.389,3.51c1.726,99.209,4.577,224.092,8.361,255.642   c0.148,1.237,0.953,2.299,2.104,2.776c0.882,0.365,15.016,6.09,33.83,6.09c9.704,0,20.654-1.522,31.671-6.09   c1.226-0.509,2.052-1.674,2.124-2.999L256,201.907l14.955,272.932c0.072,1.325,0.898,2.491,2.124,2.999   c32.392,13.425,64.176,0.554,65.512,0c1.152-0.478,1.957-1.539,2.104-2.776c1.068-8.908,2.126-25.762,3.144-50.091   C343.919,423.066,342.44,421.459,340.536,421.38z"/>
<path d="M166.014,199.811c0.02,0,0.041,0,0.061,0c1.905-0.033,3.423-1.604,3.39-3.51l-0.02-1.155   c-0.029-1.906-1.601-3.419-3.504-3.396c-1.905,0.031-3.425,1.601-3.395,3.506l0.019,1.164   C162.599,198.306,164.136,199.811,166.014,199.811z"/>
<path d="M348,28.07H164c-1.905,0-3.45,1.545-3.45,3.45v18.31c0.003,0.264,0.282,26.829,0.817,66.089   c0.225,16.734,0.497,35.838,0.813,56.334c0.029,1.906,1.629,3.473,3.503,3.397c1.905-0.03,3.426-1.598,3.396-3.503   c-0.31-20.032-0.576-38.718-0.798-55.177c12.65-17.469,22.036-53.516,24.518-63.727h59.75v67.977c0,1.906,1.544,3.45,3.45,3.45   c9.512,0,17.25-7.737,17.25-17.25V53.244h45.961c2.48,10.212,11.859,46.258,24.519,63.727   c-1.028,75.627-2.748,181.801-5.128,260.593c-0.058,1.904,1.439,3.494,3.344,3.553c0.036,0.001,0.071,0.001,0.107,0.001   c1.855,0,3.389-1.477,3.446-3.346c2.392-79.234,4.118-186.13,5.146-261.853c0.522-39.26,0.802-65.825,0.806-66.125V31.521   C351.45,29.615,349.906,28.07,348,28.07z M168.106,103.917c-0.33-25.036-0.539-43.397-0.619-50.673h18.196   C183.255,62.915,176.693,87.161,168.106,103.917z M217.291,46.344h-27.146c-0.004,0-0.009,0-0.014,0H167.45V34.971h49.841V46.344z    M266.35,107.421c0,4.498-2.884,8.335-6.899,9.759V53.244h6.899V107.421z M287.82,46.344H269.8H256h-31.81V34.971h63.63V46.344z    M343.901,103.915c-8.587-16.753-15.147-41-17.574-50.671h18.186C344.433,60.547,344.225,78.9,343.901,103.915z M344.55,46.344   h-22.663c-0.01,0-0.018,0-0.027,0h-27.139V34.971h49.829V46.344z"/>
</g>
</svg>