<svg width="30" height="30" viewBox="0 0 30 30" fill="none" xmlns="http://www.w3.org/2000/svg">
<g clip-path="url(#clip0_241_2307)">
<path d="M0.9375 7.5L8.4375 1.875L15 7.5L22.5 1.875L29.0625 7.5V14.0625L15 28.125L0.9375 14.0625V7.5Z" fill="black"/>
<g clip-path="url(#clip1_241_2307)">
<path d="M10.0539 3.01699V1.00317H8.04763H6.03381V3.01699H8.04763H10.0539Z" fill="#FF0000"/>
<path d="M24.1356 3.01699V1.00317H22.1217H20.1155V3.01699H22.1217H24.1356Z" fill="#FF0000"/>
<path d="M6.03383 3.01709H4.02002V5.0309H6.03383V3.01709Z" fill="#FF0000"/>
<path d="M12.0676 3.01709H10.0538V5.0309H12.0676V3.01709Z" fill="#FF0000"/>
<path d="M20.1156 3.01709H18.1018V5.0309H20.1156V3.01709Z" fill="#FF0000"/>
<path d="M26.1494 3.01709H24.1356V5.0309H26.1494V3.01709Z" fill="#FF0000"/>
<path d="M4.02749 5.03076H2.01367V7.04458H4.02749V5.03076Z" fill="#FF0000"/>
<path d="M14.0818 5.03076H12.068V7.04458H14.0818V5.03076Z" fill="#FF0000"/>
<path d="M18.1019 5.03076H16.0881V7.04458H18.1019V5.03076Z" fill="#FF0000"/>
<path d="M28.1631 5.03076H26.1493V7.04458H28.1631V5.03076Z" fill="#FF0000"/>
<path d="M16.0956 7.03711H14.0818V9.05092H16.0956V7.03711Z" fill="#FF0000"/>
<path d="M28.1556 7.03711V9.05092V11.0647V13.071V15.0848H30.1695V13.071V11.0647V9.05092V7.03711H28.1556Z" fill="#FF0000"/>
<path d="M2.01381 11.0647V9.05092V7.03711H0V9.05092V11.0647V13.071V15.0848H2.01381V13.071V11.0647Z" fill="#FF0000"/>
<path d="M4.02749 15.0847H2.01367V17.0985H4.02749V15.0847Z" fill="#FF0000"/>
<path d="M28.1631 15.0847H26.1493V17.0985H28.1631V15.0847Z" fill="#FF0000"/>
<path d="M6.03383 17.0986H4.02002V19.1124H6.03383V17.0986Z" fill="#FF0000"/>
<path d="M26.1494 17.0986H24.1356V19.1124H26.1494V17.0986Z" fill="#FF0000"/>
<path d="M8.04763 19.1047H6.03381V21.1185H8.04763V19.1047Z" fill="#FF0000"/>
<path d="M24.1356 19.1047H22.1218V21.1185H24.1356V19.1047Z" fill="#FF0000"/>
<path d="M10.0613 21.1187H8.04749V23.1325H10.0613V21.1187Z" fill="#FF0000"/>
<path d="M22.1293 21.1187H20.1155V23.1325H22.1293V21.1187Z" fill="#FF0000"/>
<path d="M12.0676 23.1326H10.0538V25.1464H12.0676V23.1326Z" fill="#FF0000"/>
<path d="M20.1156 23.1326H18.1018V25.1464H20.1156V23.1326Z" fill="#FF0000"/>
<path d="M14.0818 25.1387H12.068V27.1525H14.0818V25.1387Z" fill="#FF0000"/>
<path d="M18.1019 25.1387H16.0881V27.1525H18.1019V25.1387Z" fill="#FF0000"/>
<path d="M16.0956 27.1526H14.0818V29.1664H16.0956V27.1526Z" fill="#FF0000"/>
</g>
</g>
<defs>
<clipPath id="clip0_241_2307">
<rect width="30" height="30" fill="white"/>
</clipPath>
<clipPath id="clip1_241_2307">
<rect width="30.1695" height="30.1695" fill="white"/>
</clipPath>
</defs>
</svg>
