<?xml version="1.0" ?><svg id="outline" viewBox="0 0 340 340" xmlns="http://www.w3.org/2000/svg"><title/><path fill="green" d="M120.411,179.217a543.9,543.9,0,0,0,95.106,68.188,93.4,93.4,0,0,0-3.381,20.544,58.935,58.935,0,0,0,7.452,32.4,57.14,57.14,0,0,0,5.441,7.895,49.946,49.946,0,0,0,38.778,18.342,51.939,51.939,0,0,0,7.564-.556,49.308,49.308,0,0,0,33.838-21.02l2.226,1.459a12.62,12.62,0,0,0,14.74-20.459l-7.968-6.3a57.992,57.992,0,0,0-.307-16.163,3.462,3.462,0,0,0-6.7-.372c-.872,2.778-1.848,5.375-2.889,7.835l-51.186-38.938c.788-1.134,1.569-2.216,2.328-3.224a17.246,17.246,0,0,0-3.6-24.341l-3.769-2.742a3.46,3.46,0,0,0-4.411.282,111.093,111.093,0,0,0-9.982,10.715C179.249,170.286,147.4,126.71,130.226,97.457,111.346,65.3,105.6,43.039,105.549,42.82a3.461,3.461,0,0,0-2.961-2.6c-47.821-5.518-84.03-26.14-84.39-26.348a3.462,3.462,0,0,0-5.077,3.882C28.123,74.543,64.22,128.865,120.411,179.217ZM317.882,291.443a5.7,5.7,0,0,1-6.653,9.235l-2.527-1.655c.452-.917.882-1.849,1.281-2.8a58.179,58.179,0,0,0,2.862-8.76ZM238.89,267.751a58.043,58.043,0,0,1,.975-6.352l49.29,32.788a66.688,66.688,0,0,1-6.5,5.889,23.537,23.537,0,0,1-26.091,2.177l-.516-.292C244.3,295.209,237.56,281.781,238.89,267.751Zm23.872-19.645,8.688,6.609a27.6,27.6,0,0,0-9.041,13.366l-8.686-5.778A29.528,29.528,0,0,1,262.762,248.106Zm24.1,18.332a34.314,34.314,0,0,0-8.648,12.155l-9.752-6.487c.8-3.217,3.054-9.527,8.791-12.977Zm6.9,22.5-9.675-6.436a27.081,27.081,0,0,1,8.432-11.757l8.755,6.66A75.064,75.064,0,0,1,293.762,288.937Zm-36.627-45.111a36.037,36.037,0,0,0-9.406,14.49l-5.967-3.97a82.506,82.506,0,0,1,7.6-16.434ZM246.363,209.08l1.416,1.03a10.322,10.322,0,0,1,2.143,14.578c-7.257,9.642-16.258,24.827-17.924,42.41-1.585,16.724,6.5,32.765,20.6,40.868l.6.337a30.446,30.446,0,0,0,33.75-2.794,78,78,0,0,0,20.043-24.079,52.27,52.27,0,0,1-3.393,12.117,42.345,42.345,0,0,1-33.233,25.635,43.212,43.212,0,0,1-39.988-15.336,50.274,50.274,0,0,1-4.779-6.936,52.042,52.042,0,0,1-6.547-28.607C219.847,252.732,225.286,230.026,246.363,209.08ZM46.758,34.074c4.06,12.988,18.066,51.011,53.845,95.611a3.462,3.462,0,0,0,5.4-4.332C74.687,86.316,60.462,52.6,54.976,36.865a247.275,247.275,0,0,0,44.505,9.958c1.953,6.589,8.622,26.568,24.6,53.848,17.5,29.865,49.942,74.339,105.42,117.611q-2.589,3.66-4.7,7.306c-37.624-21.755-70.747-47.615-98.463-76.919a3.462,3.462,0,1,0-5.03,4.757c28.223,29.841,61.94,56.156,100.224,78.269a93.989,93.989,0,0,0-3.838,9C191.183,225.811,58.9,146.369,21.983,23.666A241.877,241.877,0,0,0,46.758,34.074Z"/><path d="M111.8,143.008a3.462,3.462,0,0,0,5.2-4.574q-.815-.924-1.615-1.847a3.462,3.462,0,0,0-5.23,4.538Q110.973,142.066,111.8,143.008Z"/></svg>
