<?xml version="1.0" encoding="utf-8"?>

<!DOCTYPE svg PUBLIC "-//W3C//DTD SVG 1.1//EN" "http://www.w3.org/Graphics/SVG/1.1/DTD/svg11.dtd">
<!-- Uploaded to: SVG Repo, www.svgrepo.com, Generator: SVG Repo Mixer Tools -->
<svg version="1.1" id="_x32_" xmlns="http://www.w3.org/2000/svg" xmlns:xlink="http://www.w3.org/1999/xlink" 
	 width="800px" height="800px" viewBox="0 0 512 512"  xml:space="preserve">
<style type="text/css">
<![CDATA[
	.st0{fill:#fff;}
]]>
</style>
<g>
	<path class="st0" d="M449,356.594l-40.375-112.406H257.531c6.531,16.063,10.188,33.563,10.188,51.922
		c0,76.219-62.031,138.219-138.219,138.219c-22.203,0-43.125-5.375-61.719-14.703V512h222.016v-40.5
		c45.438-18.656,82.016-54.469,101.703-99.375l49.656-4.031c2.688-0.219,5.125-1.656,6.656-3.875S449.766,359.188,449,356.594z"/>
	<path class="st0" d="M500.984,149.219h-69.109C410.594,57.063,325.656,0,224.031,0C106.391,0,11.016,95.375,11.016,213.016v76.922
		c0,0.438,0.047,0.875,0.047,1.313h0.016c0.703,60.031,49.547,108.531,109.766,108.531c60.656,0,109.844-49.188,109.844-109.844
		c0-33.688-15.203-63.781-39.078-83.938h309.375V149.219z M120.844,339.359c-27.297,0-49.422-22.125-49.422-49.422
		c0-27.313,22.125-49.438,49.422-49.438c27.313,0,49.438,22.125,49.438,49.438C170.281,317.234,148.156,339.359,120.844,339.359z"/>
</g>
</svg>
