<?xml version="1.0" encoding="iso-8859-1"?>
<!-- Uploaded to: SVG Repo, www.svgrepo.com, Generator: SVG Repo Mixer Tools -->
<!DOCTYPE svg PUBLIC "-//W3C//DTD SVG 1.1//EN" "http://www.w3.org/Graphics/SVG/1.1/DTD/svg11.dtd">
<svg fill="yellow" stroke="yellow" height="800px" width="800px" version="1.1" id="Capa_1" xmlns="http://www.w3.org/2000/svg" xmlns:xlink="http://www.w3.org/1999/xlink" 
	 viewBox="0 0 51.096 51.096" xml:space="preserve">
<path d="M51.06,32.356l-0.723-16.622c-0.052-1.195-0.546-2.319-1.393-3.166l-2.13-2.13l0.529-0.529
	c0.819-0.819,1.27-1.908,1.27-3.066c0-2.391-1.945-4.336-4.336-4.336c-1.158,0-2.247,0.451-3.066,1.27l-0.529,0.529l-2.188-2.188
	c-0.846-0.846-1.97-1.341-3.166-1.393L18.727,0.004L18.565,0c-2.025,0-4.498,1.258-4.825,4.8c-0.064,0.373-0.252,1.942,0.796,3.292
	c0.844,1.086,2.216,1.683,4.128,1.775h11.021c0.74,0,1.436,0.288,1.959,0.811l1.334,1.334L1.296,43.693
	c-1.69,1.691-1.69,4.442,0,6.132c0.819,0.819,1.908,1.271,3.066,1.271s2.247-0.451,3.066-1.271L39.11,18.145l1.276,1.276
	c0.523,0.523,0.811,1.219,0.811,1.959l0.001,11.069c0.224,4.572,3.407,4.928,4.377,4.928c0.324,0,0.57-0.033,0.687-0.052
	C50.284,36.953,51.16,33.903,51.06,32.356z"/>
</svg>
