<?xml version="1.0" ?><svg fill="white" viewBox="0 0 199.55 199.61" xmlns="http://www.w3.org/2000/svg"><g id="a"/><g id="b"><g id="c"><path d="M51.72,139.55c.91-6.17,.77-12.37,.76-18.59,0-2.28-3.54-2.28-3.54,0,0,5.88,.23,11.81-.64,17.65-.14,.95,.24,1.9,1.24,2.18,.83,.23,2.04-.28,2.18-1.24h0Z"/><path d="M101.73,81.63c12.29-10.96,25.08-21.33,38.08-31.43s26.54-20.17,39.81-30.26c1.93-1.47,3.86-2.94,5.78-4.41,1.69-1.29,3.2-2.78,4.83-4.15,3.22-2.7,6.54-5.24,9.06-8.65,.57-.77,.12-1.97-.64-2.42-.89-.54-1.86-.13-2.42,.64-2.14,2.9-5.11,5.11-7.86,7.39-1.43,1.19-2.75,2.51-4.18,3.7-1.68,1.39-3.48,2.66-5.21,3.98-6.62,5.04-13.27,10.05-19.91,15.07-13.05,9.86-26.06,19.77-38.75,30.1-7.16,5.83-14.21,11.81-21.11,17.95-1.71,1.52,.81,4.02,2.5,2.5h0Z"/><path d="M53.02,121.54c8.51-8.45,18.13-15.64,27.65-22.89,.77-.58,1.15-1.52,.64-2.42-.43-.75-1.66-1.21-2.42-.64-9.76,7.43-19.64,14.79-28.36,23.44-1.62,1.61,.88,4.11,2.5,2.5h0Z"/><path d="M97.99,120.69c-8.93,9.58-16.63,20.22-25.07,30.22-1.46,1.73,1.03,4.25,2.5,2.5,8.44-10,16.14-20.64,25.07-30.22,1.55-1.67-.95-4.18-2.5-2.5h0Z"/><path d="M194.83,2.96c-7.55,12.33-18.44,22.03-27.82,32.89-10.49,12.15-21.12,24.19-31.1,36.76-5.68,7.14-11.19,14.42-16.79,21.61-.59,.76-.73,1.76,0,2.5,.61,.62,1.92,.75,2.5,0,9.99-12.84,19.87-25.72,30.43-38.11,5.31-6.23,10.69-12.4,16.04-18.6,4.76-5.52,9.78-10.78,14.72-16.13,5.51-5.98,10.83-12.18,15.09-19.13,1.19-1.95-1.87-3.73-3.06-1.79h0Z"/><path d="M72.89,150.13c-1.95-.33-3.88-.77-5.83-1.04-2.08-.29-4.25-.52-6.31,.04-.89,.24-1.53,1.27-1.24,2.18s1.22,1.5,2.18,1.24c.18-.05,.36-.09,.54-.13,0,0,.45-.07,.19-.03-.23,.03,.09,0,.13,0,.44-.04,.88-.05,1.33-.04,.47,0,.95,.04,1.42,.08,.23,.02,.46,.05,.69,.07,.03,0,.37,.05,.2,.02-.19-.03,.3,.04,.29,.04,1.84,.27,3.65,.69,5.49,.99,.91,.15,1.95-.24,2.18-1.24,.2-.86-.26-2.01-1.24-2.18h0Z"/><path d="M35.51,151.25c-4.38-3.4-9.17-7.36-9.89-13.23s1.71-12.22,4.64-17.16c1.61-2.71,3.67-5.37,6.63-6.66l-2.67-1.53c-.53,5.36-1.66,10.86-.09,16.15,1.46,4.91,5.19,9.67,10,11.66,2.26,.93,4.76,1.08,7.04,.14,2.51-1.04,4.37-3.21,6.18-5.16,1.68-1.81,3.33-3.65,5.24-5.23,2.33-1.92,5.04-3.39,7.58-5,2.76-1.75,5.55-3.48,8.13-5.48,1.87-1.45,4.17-3.79,6.64-4.03l-1.71-1.3c.26,1.86-.66,3.92-1.46,5.55-1.08,2.19-2.43,4.24-3.8,6.25s-2.75,3.87-4.02,5.88-2.35,4.37-3.55,6.53c-.65,1.18-1.34,2.39-2.22,3.42s-2.09,1.65-3.29,2.3c-2.29,1.26-4.24,2.89-5.25,5.36-1.83,4.48,.77,9.19,4.59,11.63,6.36,4.06,14.1,1.37,21.04,1.34l-1.71-2.24c-.42,2.42-2.3,4.27-4.07,5.83-1.94,1.7-4.1,3.17-6.33,4.46-2.69,1.56-5.68,2.51-8.82,2.21-2.9-.28-6.08-1.58-8.38-3.37-2.13-1.65-3.7-3.98-6.13-5.24-.98-.51-2.17-1.11-3.3-.81-1.02,.27-1.69,1.15-2.41,1.85-4.48,4.37-8.05,9.38-11.82,14.35-1.89,2.49-3.9,4.85-6.08,7.07-1.8,1.83-3.67,3.86-6.07,4.91-4.81,2.1-10.45-1.82-12.68-6-1.11-2.08-1.18-4.28-.04-6.35s2.79-3.66,4.52-5.14c3.77-3.23,8.15-5.67,12.33-8.31,3.29-2.08,17.97-10.26,11.57-14.95-1.84-1.35-3.61,1.72-1.79,3.06-.1-.07-.16-.17-.15-.13-.05-.22,.07-.42-.08-.05-.07,.17-.54,.88-.92,1.3-1.21,1.34-2.66,2.47-4.11,3.52-2.7,1.96-5.55,3.73-8.38,5.47-7.42,4.57-21.49,12.32-16.17,23.05,2.37,4.79,8.21,9.05,13.72,8.64s9.92-5.37,13.39-9.34c4.29-4.9,7.72-10.49,12.06-15.35,1.02-1.14,2.11-2.2,3.2-3.26,.1-.09,1.02-1.07,1.05-1.05s-.64,.17-.63,.13c.01-.04,.79,.32,.82,.34,2.45,1.2,4.08,3.66,6.24,5.27,2.89,2.16,6.65,3.58,10.24,3.9s7.09-.74,10.18-2.45c2.7-1.5,5.3-3.33,7.61-5.38,2.15-1.91,4.33-4.34,4.84-7.27,.19-1.11-.47-2.25-1.71-2.24-5.81,.03-12.57,2.43-18.1-.21-3.45-1.65-6.21-5.8-3.44-9.3,1.59-2.01,4.29-2.63,6.19-4.3s3.2-4.24,4.38-6.49c1.05-2.02,2.08-4.03,3.34-5.92s2.61-3.74,3.89-5.64c2.68-4,5.81-8.76,5.12-13.8-.1-.7-1.01-1.37-1.71-1.3-2.35,.23-4.33,1.41-6.19,2.78-1.99,1.47-3.91,2.99-5.98,4.37-4.61,3.07-9.75,5.65-13.85,9.41-1.72,1.58-3.25,3.35-4.86,5.05s-3.3,3.77-5.76,3.94c-4.52,.32-8.47-4.45-10.13-8.14-2.39-5.32-.96-11.37-.42-16.92,.15-1.49-1.58-2-2.67-1.53-2.96,1.29-5.2,3.85-6.97,6.47-1.96,2.9-3.44,6.17-4.55,9.49-2.04,6.14-2.51,13.04,1.27,18.62,2.16,3.19,5.13,5.69,8.15,8.03,.76,.59,1.76,.73,2.5,0,.62-.6,.75-1.92,0-2.5h0Z"/><path d="M2.62,188.19c-1.54,2.06-3.09,4.73-2.49,7.4,.38,1.69,1.75,2.8,3.28,3.43,.85,.35,1.79,.59,2.72,.59,1.08,0,2.1-.33,3.06-.8,1.79-.9,3.19-2.42,4.62-3.77,.68-.64,.69-1.87,0-2.5s-1.78-.68-2.5,0c-.53,.5-1.05,1.03-1.6,1.52-.26,.24-.53,.48-.81,.71-.08,.07-.16,.13-.25,.2-.21,.17,.35-.25,0,0-.17,.12-.34,.24-.51,.36-.29,.19-.6,.34-.91,.51-.23,.12,.41-.14,.04-.01-.08,.03-.15,.06-.22,.08-.19,.06-.38,.11-.57,.15-.33,.08,.11-.03,.12,0,0,0-.26,.02-.29,.02-.13,0-.42-.06-.54-.01,.04-.01,.43,.08,.11,.01-.09-.02-.17-.04-.26-.05-.23-.05-.45-.11-.68-.19-.12-.04-.37-.18-.49-.18,.04,0,.39,.19,.13,.05-.06-.03-.12-.06-.18-.09-.13-.07-.25-.15-.37-.22s-.24-.24,.1,.09c-.06-.06-.13-.11-.2-.17-.08-.07-.15-.16-.23-.24-.18-.17,.12,.15,.13,.17-.02-.05-.08-.11-.11-.16-.05-.07-.1-.24-.16-.3,.01,.01,.15,.45,.09,.22-.02-.07-.05-.14-.07-.21-.03-.1-.04-.19-.06-.29-.07-.29,.03,.43,.03,.21,0-.06,0-.13-.01-.19,0-.1,0-.2,0-.31,0-.05,0-.1,.01-.15,.02-.32,.01,.04-.03,.16,.08-.23,.09-.48,.16-.72,.04-.12,.07-.24,.12-.36,.03-.08,.22-.55,.08-.23s.09-.19,.13-.27c.06-.13,.13-.27,.2-.4,.14-.26,.29-.52,.44-.78,.32-.52,.66-1.01,1.02-1.5,.56-.75,.15-2.01-.64-2.42-.93-.49-1.83-.16-2.42,.64h0Z"/><path d="M24.31,188.17c-4.75-4.28-9.14-8.93-14-13.09-.73-.62-1.79-.71-2.5,0-.64,.64-.73,1.88,0,2.5,4.86,4.15,9.26,8.81,14,13.09,.71,.64,1.8,.7,2.5,0,.65-.65,.71-1.86,0-2.5h0Z"/><path d="M30.61,181.12c-4.06-4.6-7.49-9.82-12.25-13.76-.74-.61-1.78-.72-2.5,0-.63,.63-.74,1.89,0,2.5,4.76,3.94,8.2,9.15,12.25,13.76,.63,.72,1.86,.65,2.5,0,.71-.71,.63-1.78,0-2.5h0Z"/><path d="M36.56,173.4c-1.82-1.66-3.58-3.39-5.21-5.24s-2.96-3.51-3.97-5.81c-.38-.88-1.67-1.08-2.42-.64-.9,.53-1.02,1.54-.64,2.42,1.03,2.37,2.71,4.46,4.4,6.39s3.47,3.67,5.33,5.38c.71,.64,1.81,.7,2.5,0,.65-.65,.71-1.86,0-2.5h0Z"/><g><path d="M151.22,138.61c-.86-5.84-.64-11.77-.64-17.65,0-2.28-3.54-2.28-3.54,0,0,6.22-.15,12.42,.76,18.59,.14,.95,1.34,1.47,2.18,1.24,1.01-.28,1.38-1.23,1.24-2.18h0Z"/><path d="M149.02,119.04c-8.71-8.64-18.55-15.96-28.29-23.38-9.95-7.59-19.49-15.7-29.01-23.82s-19.09-16.29-29-24c-9.98-7.76-20.18-15.23-30.2-22.94-5.21-4.01-10.34-8.13-15.57-12.11C12.06,9.06,7.03,5.28,3.02,.58,1.53-1.15-.96,1.36,.51,3.09c3.56,4.16,7.92,7.58,12.24,10.91,4.49,3.47,8.98,6.94,13.45,10.44,9.96,7.79,20.15,15.26,30.19,22.95,19.92,15.27,38.32,32.37,58.06,47.85,10.89,8.54,22.21,16.52,32.06,26.3,1.62,1.61,4.13-.9,2.5-2.5h0Z"/><path d="M1.64,4.74c6.1,9.98,14.55,18.23,22.39,26.81,4.14,4.53,8.09,9.24,12.1,13.88s8.41,9.71,12.57,14.61c16.81,19.81,32.06,40.88,48.53,60.97,4.56,5.56,9.28,10.98,13.96,16.44,2.28,2.65,4.52,5.33,6.62,8.13s3.9,5.47,6.28,7.84c1.62,1.61,4.12-.89,2.5-2.5-2.07-2.06-3.74-4.44-5.47-6.78-1.84-2.48-3.78-4.88-5.76-7.24-4.09-4.86-8.33-9.58-12.39-14.47-8.27-9.96-16.28-20.12-24.22-30.34s-15.81-20.55-24.13-30.5-16.55-19.46-24.97-29.06C21.17,22.84,11.46,14.02,4.69,2.96c-1.19-1.94-4.25-.16-3.06,1.79h0Z"/><path d="M127.58,153.54c1.83-.31,3.65-.72,5.49-.99,.12-.02,.23-.03,.35-.05-.19,.03-.07,0,.05,0,.23-.03,.46-.05,.69-.08,.47-.05,.95-.08,1.42-.09,.45-.01,.89,0,1.34,.03,.1,0,.2,.02,.3,.03-.24-.02-.16-.03,.03,0,.2,.04,.41,.08,.61,.14,.89,.24,1.97-.3,2.18-1.24s-.28-1.92-1.24-2.18c-2.06-.55-4.23-.33-6.31-.04-1.96,.27-3.89,.72-5.83,1.04-.92,.15-1.51,1.33-1.24,2.18,.32,.99,1.2,1.4,2.18,1.24h0Z"/><path d="M166.52,153.76c5.2-4.04,10.11-8.7,10.91-15.58s-1.89-13.84-5.29-19.4c-1.87-3.06-4.35-6.16-7.72-7.63-1.09-.47-2.81,.04-2.67,1.53,.49,4.99,1.69,10.28,.21,15.21-1.23,4.12-4.76,8.78-9.18,9.73-2.45,.53-4.28-.76-5.95-2.41s-3.24-3.49-4.91-5.18c-3.89-3.94-8.79-6.53-13.39-9.52-2.42-1.57-4.73-3.22-7.01-4.97-2.08-1.6-4.27-3.1-6.95-3.36-.68-.07-1.61,.59-1.71,1.3-.61,4.41,1.76,8.57,4.05,12.17,2.45,3.84,5.29,7.4,7.4,11.45,1.23,2.38,2.41,4.8,4.08,6.91s4.08,2.87,6.19,4.45c3.57,2.67,2.63,7.16-.68,9.55-5.57,4.02-13.41,1.16-19.66,1.13-1.24,0-1.9,1.13-1.71,2.24,.9,5.18,6.5,8.93,10.6,11.54,2.72,1.73,5.63,3.1,8.86,3.5s6.32-.27,9.25-1.54,5.07-2.95,7.29-5.12c.9-.89,1.8-1.77,2.93-2.36,.11-.06,.71-.25,.79-.36l.21-.06c-.19,.04-.38,.02-.56-.08,0,0,.8,.82,.98,1,4.68,4.56,8.32,9.86,12.32,15.01,1.94,2.49,4,4.83,6.23,7.07,1.86,1.87,3.86,3.78,6.29,4.88,5.42,2.44,11.43-.14,15.21-4.32,1.88-2.09,3.31-4.65,3.53-7.49,.2-2.52-.82-4.95-2.29-6.95-3.08-4.21-7.59-7.23-11.95-9.99-3.44-2.18-6.95-4.24-10.3-6.56-1.71-1.18-3.41-2.43-4.87-3.91-.62-.62-1.03-1.01-1.38-1.78,.14,.31,.02,.03-.01-.06-.11-.33-.12,.04-.02-.11-.33,.53,.17-.24-.1,.31,.05-.11,0-.02-.09,.05,1.82-1.33,.06-4.41-1.79-3.06-6.08,4.45,6.82,11.91,9.88,13.87,3.68,2.35,7.47,4.54,11.03,7.07,2.02,1.44,3.97,3.02,5.63,4.86,1.37,1.52,2.73,3.45,2.74,5.59,.02,4.94-5.81,9.82-10.53,9.96-2.48,.07-4.59-1.26-6.38-2.85-2.12-1.87-4.11-3.96-5.94-6.11-4.04-4.75-7.36-10.05-11.51-14.71-1.02-1.14-2.11-2.2-3.2-3.26-.72-.7-1.39-1.59-2.41-1.85-2.29-.6-4.92,1.77-6.41,3.19-1.14,1.09-2.21,2.34-3.53,3.21-1.47,.97-3.1,1.77-4.77,2.31-3.29,1.08-6.65,.94-9.83-.44-2.75-1.19-5.41-3.04-7.71-4.94-2.02-1.67-4.31-3.73-4.78-6.43l-1.71,2.24c6.42,.03,13.09,2.26,19.28-.42,4.21-1.82,7.62-6.09,6.84-10.87-.41-2.51-2.04-4.66-4.11-6.08-1.05-.72-2.22-1.23-3.3-1.9-1.14-.7-1.92-1.66-2.64-2.77-1.54-2.37-2.66-4.98-4.07-7.42-1.06-1.83-2.31-3.55-3.52-5.29-1.6-2.29-3.2-4.61-4.52-7.07-.99-1.85-2.22-4.26-1.92-6.44l-1.71,1.3c2.15,.21,4.19,2.12,5.82,3.39,2.23,1.75,4.58,3.31,6.95,4.84,2.64,1.71,5.39,3.28,7.97,5.06,2.09,1.44,3.88,3.23,5.61,5.09s3.51,4.05,5.66,5.56,4.67,1.92,7.14,1.36c4.96-1.12,9.01-5.73,10.93-10.24,2.5-5.85,1.24-12.03,.64-18.12l-2.67,1.53c5.28,2.31,8.25,8.84,9.94,13.99s2.26,11.14-1.13,15.98c-1.96,2.79-4.76,5-7.43,7.07-.76,.59-.61,1.88,0,2.5,.74,.75,1.75,.58,2.5,0h0Z"/><path d="M193.85,189.98c.64,.86,1.24,1.77,1.7,2.75,.05,.11,.09,.21,.14,.32-.26-.55-.05-.11,0,.02,.09,.25,.17,.5,.23,.76,.03,.12,.04,.24,.07,.36,.05,.22-.04-.51-.03-.2,0,.05,0,.1,.01,.16,0,.1,0,.2,0,.31,0,.06,0,.13,0,.19,0,.35,.07-.36,.03-.17-.04,.2-.14,.41-.16,.6,.06-.4,.17-.36,.09-.22-.03,.05-.06,.11-.09,.16s-.07,.11-.1,.16c-.15,.24,.3-.32,.08-.11-.08,.08-.15,.16-.23,.24-.04,.04-.09,.07-.13,.11-.23,.22,.31-.19,.11-.09-.12,.06-.24,.16-.36,.23-.06,.03-.12,.06-.18,.09-.05,.02-.09,.05-.14,.07-.12,.06-.06,.03,.18-.07-.12,0-.32,.12-.43,.16-.2,.07-.4,.12-.6,.17-.11,.03-.41,.16-.51,.11,.05,.03,.37-.02,.11-.02-.12,0-.24,0-.36,0-.1,0-.2-.01-.29-.02-.25-.02,.44,.1,.06,0-.15-.04-.31-.07-.46-.12-.08-.02-.15-.05-.23-.08-.06-.02-.34-.2-.12-.04,.21,.14,0,0-.06-.04-.11-.05-.22-.11-.32-.17-.36-.2-.8-.43-1.09-.72,.03,.03,.31,.24,.06,.04-.1-.08-.2-.16-.29-.24-.16-.14-.32-.28-.48-.42-.62-.56-1.22-1.16-1.83-1.74-.67-.64-1.85-.72-2.5,0s-.72,1.83,0,2.5c1.3,1.23,2.55,2.53,4.08,3.47,1.79,1.09,3.78,1.38,5.78,.71,1.67-.55,3.1-1.57,3.7-3.28,.45-1.25,.24-2.72-.23-3.94-.53-1.38-1.28-2.63-2.16-3.82-.55-.74-1.56-1.19-2.42-.64-.73,.47-1.23,1.63-.64,2.42h0Z"/><path d="M177.73,190.67c4.75-4.28,9.14-8.93,14-13.09,.73-.62,.64-1.87,0-2.5-.72-.72-1.78-.62-2.5,0-4.86,4.15-9.26,8.81-14,13.09-.71,.64-.65,1.85,0,2.5,.71,.71,1.79,.64,2.5,0h0Z"/><path d="M171.43,183.62c4.06-4.6,7.49-9.82,12.25-13.76,.74-.61,.63-1.87,0-2.5-.73-.73-1.77-.61-2.5,0-4.76,3.94-8.2,9.15-12.25,13.76-.63,.72-.71,1.8,0,2.5,.64,.64,1.87,.72,2.5,0h0Z"/><path d="M165.47,175.91c1.86-1.7,3.67-3.48,5.33-5.38s3.37-4.02,4.4-6.39c.37-.85,.28-1.94-.64-2.42-.77-.4-2.03-.27-2.42,.64-1.01,2.31-2.41,4.05-3.97,5.81s-3.39,3.58-5.21,5.24c-.71,.64-.65,1.85,0,2.5,.7,.7,1.8,.65,2.5,0h0Z"/><path d="M35.52,37.65c10.37,9.88,20.53,19.98,30.68,30.09,10.15,10.11,20.35,20.15,30.46,30.29,2.21,2.22,4.44,4.41,6.52,6.75,1.28,1.44,3.19,3.98,5.37,3.86s2.28-3.67,0-3.54c-.33,.02,.07,0,.15,.06-.15-.09-.3-.18-.44-.28-.33-.24-.63-.55-.93-.84-.78-.77-1.5-1.6-2.22-2.42-1.82-2.07-3.83-3.97-5.77-5.92-4.94-4.96-9.9-9.9-14.88-14.81-9.9-9.77-19.71-19.64-29.62-29.41-5.56-5.48-11.16-10.94-16.81-16.33-1.65-1.57-4.16,.93-2.5,2.5h0Z"/></g></g></g></svg>
