<?xml version="1.0" ?><svg fill="white" viewBox="0 0 197.62 195.76" xmlns="http://www.w3.org/2000/svg"><g id="a"/><g id="b"><g id="c"><path d="M42.94,143.83c.76-5.34,.64-10.7,.63-16.07,0-1.93-3-1.93-3,0,0,5.09,.19,10.22-.53,15.28-.11,.8,.2,1.61,1.05,1.85,.7,.19,1.73-.24,1.85-1.05h0Z"/><path d="M44.01,128.24c7.18-7.43,15.33-13.75,23.38-20.17s16.2-13.62,24.11-20.66,15.88-14.13,24.14-20.83,16.71-13.15,25-19.81c4.33-3.48,8.6-7.04,12.95-10.51,4.04-3.22,8.17-6.48,11.47-10.49,1.22-1.48-.89-3.61-2.12-2.12-2.89,3.51-6.43,6.44-9.96,9.28-3.77,3.04-7.54,6.08-11.29,9.15-8.3,6.78-16.81,13.28-25.18,19.97-16.52,13.23-31.73,27.98-48.11,41.37-9.02,7.37-18.39,14.3-26.51,22.7-1.34,1.39,.78,3.51,2.12,2.12h0Z"/><path d="M161.54,25.69c-5.03,8.57-12.08,15.67-18.57,23.11-7.01,8.05-13.73,16.4-20.46,24.69-13.83,17.04-26.35,35.09-39.92,52.35-3.78,4.81-7.7,9.49-11.58,14.22-1.88,2.28-3.72,4.6-5.46,6.99-1.65,2.26-3.15,4.63-5.1,6.65-1.34,1.39,.78,3.52,2.12,2.12,1.67-1.74,3.06-3.72,4.45-5.69,1.56-2.22,3.21-4.38,4.92-6.49,3.37-4.18,6.87-8.25,10.22-12.45,6.89-8.65,13.56-17.48,20.17-26.34,6.61-8.87,13.12-17.81,20.05-26.43s13.75-16.89,20.76-25.21c7.17-8.51,15.32-16.33,20.99-25.99,.98-1.67-1.61-3.18-2.59-1.51h0Z"/><path d="M60.47,153.02c-1.62-.28-3.21-.67-4.84-.9-1.73-.25-3.54-.45-5.25,.03-.76,.21-1.3,1.07-1.05,1.85s1.04,1.27,1.85,1.05c.15-.04,.29-.08,.44-.11,0,0,.38-.07,.15-.03-.2,.03,.07,0,.11,0,.37-.03,.73-.04,1.1-.04,.39,0,.79,.03,1.18,.07,.19,.02,.38,.04,.57,.06,.25,.03-.22-.03,.03,0,.12,.02,.24,.03,.36,.05,1.53,.24,3.03,.59,4.55,.86,.77,.13,1.65-.21,1.85-1.05,.17-.73-.22-1.7-1.05-1.85h0Z"/><path d="M29.49,153.99c-2.49-2.02-5.08-4.19-6.71-7.01s-1.83-5.93-1.34-9.02,1.62-6.32,3.09-9.18c1.4-2.71,3.23-5.57,6.09-6.89l-2.26-1.3c-.43,4.56-1.35,9.23-.13,13.75,1.09,4.05,3.99,8.2,7.85,10.05,1.76,.84,3.75,1.21,5.66,.62,2.23-.69,3.8-2.46,5.31-4.13s2.82-3.26,4.41-4.71c1.93-1.75,4.21-3.07,6.38-4.5,2.34-1.54,4.71-3.07,6.91-4.81,1.6-1.27,3.55-3.44,5.7-3.67l-1.5-1.5c.48,3.78-2.34,7.62-4.29,10.61-1.1,1.68-2.26,3.33-3.31,5.04-1.14,1.86-2,3.87-3.02,5.79-.5,.94-1.02,1.89-1.67,2.73-.74,.97-1.72,1.51-2.76,2.11-1.95,1.12-3.61,2.53-4.45,4.67-1.47,3.75,.51,7.71,3.64,9.89,5.25,3.66,11.82,1.32,17.64,1.28l-1.45-1.9c-.36,2.09-1.89,3.71-3.41,5.1s-3.27,2.64-5.06,3.74c-2.23,1.37-4.71,2.26-7.37,2.01-2.5-.24-5.28-1.44-7.18-3.08-1.66-1.43-2.95-3.3-4.91-4.37-.7-.38-1.53-.81-2.35-.75-.95,.06-1.54,.73-2.16,1.37-3.59,3.74-6.56,7.8-9.58,12-1.56,2.17-3.18,4.29-5,6.24-1.47,1.58-2.95,3.3-4.82,4.42-4.08,2.45-8.92-.74-11-4.41-1.01-1.78-1.28-3.76-.37-5.64s2.33-3.33,3.82-4.67c3.14-2.82,6.81-4.96,10.32-7.27,2.52-1.66,5.06-3.34,7.35-5.32,1.73-1.49,5.36-5.08,2.5-7.29-.65-.5-1.49-.62-2.12,0-.52,.51-.64,1.63,0,2.12,.3,.24,.14,.16,.15,.08,.03-.17,.04-.12-.06,.05-.13,.23-.53,.89-.87,1.26-1.01,1.13-2.21,2.11-3.42,3.02-2.29,1.72-4.71,3.28-7.12,4.83-6.43,4.14-17.85,11.02-12.85,20.19,2.14,3.93,6.87,7.45,11.52,6.93s8.24-4.98,11.02-8.35c3.49-4.23,6.3-8.98,9.89-13.14,.81-.93,1.67-1.8,2.53-2.67,.14-.14,.74-.65,.77-.83,0,0-.37,.1-.39,.08,.23,.13,.5,.22,.74,.35,2.08,1.13,3.4,3.33,5.31,4.7,2.38,1.72,5.36,2.91,8.29,3.16s6.07-.73,8.67-2.3c2.18-1.31,4.29-2.85,6.14-4.59s3.49-3.72,3.91-6.17c.16-.94-.39-1.91-1.45-1.9-4.85,.03-10.6,2.13-15.16-.27-2.97-1.57-4.95-5.31-2.5-8.22,1.38-1.64,3.62-2.18,5.14-3.68s2.56-3.65,3.52-5.58c1.73-3.47,3.81-6.58,5.91-9.84s4.84-7.44,4.31-11.53c-.09-.73-.61-1.6-1.5-1.5-3.89,.42-6.86,3.92-9.92,6.05-3.91,2.73-8.31,5.01-11.75,8.33-1.41,1.36-2.66,2.87-3.98,4.32s-2.72,3.27-4.81,3.39c-3.87,.23-7.19-4.21-8.42-7.39-1.77-4.58-.66-9.6-.21-14.32,.12-1.24-1.33-1.72-2.26-1.3-5.08,2.33-7.91,8.66-9.53,13.66-1.72,5.32-2.16,11.27,.99,16.15,1.78,2.76,4.27,4.94,6.79,6.99,1.49,1.21,3.62-.9,2.12-2.12h0Z"/><path d="M2.17,185.93c-1.29,1.8-2.55,4.08-2.07,6.37,.27,1.28,1.27,2.31,2.44,2.83,.81,.36,1.68,.64,2.58,.63s1.73-.27,2.51-.68c1.51-.78,2.67-2.09,3.86-3.27,.56-.55,.59-1.58,0-2.12s-1.52-.59-2.12,0c-.44,.44-.88,.89-1.32,1.32-.22,.22-.45,.43-.69,.63-.01,.01-.38,.32-.38,.32,0,0,.29-.22,.04-.04-.09,.06-.18,.13-.27,.19-.25,.17-.51,.32-.78,.45-.34,.16,.24-.08-.12,.05-.16,.06-.32,.1-.49,.14-.31,.07,.05-.01,.05,0,0,0-.22,.01-.2,.01-.05,0-.4,.03-.41-.01,0-.01,.33,.07,.09,0-.09-.02-.18-.04-.27-.06-.17-.04-.35-.09-.52-.15-.06-.02-.13-.05-.19-.07-.21-.07,.33,.16,.05,.02-.11-.05-.21-.1-.32-.16-.1-.05-.19-.12-.28-.18-.24-.15,.22,.2,.09,.07-.04-.04-.09-.08-.14-.12-.08-.07-.14-.16-.22-.23-.12-.12,.19,.29,.11,.14-.03-.05-.06-.09-.09-.14-.04-.07-.07-.18-.12-.23,.21,.22,.11,.32,.08,.18-.01-.06-.04-.12-.06-.19-.02-.08-.03-.17-.05-.26,.14,.44,.03,.22,.02,.04,0-.1,0-.2,0-.3,0-.05,0-.09,0-.14,.01-.22,.1-.11-.02,.12,.08-.15,.08-.43,.13-.6,.06-.22,.14-.43,.22-.64,.04-.11,.14-.28-.05,.11,.03-.06,.05-.12,.08-.18,.05-.12,.11-.24,.17-.35,.12-.23,.24-.46,.38-.69,.26-.44,.55-.87,.85-1.29,.46-.64,.13-1.7-.54-2.05-.77-.41-1.56-.15-2.05,.54h0Z"/><path d="M20.2,185.92c-3.94-3.7-7.57-7.72-11.61-11.32-.6-.54-1.53-.6-2.12,0-.55,.55-.61,1.58,0,2.12,4.04,3.6,7.67,7.62,11.61,11.32,1.41,1.32,3.53-.8,2.12-2.12h0Z"/><path d="M25.43,179.82c-3.36-3.98-6.19-8.47-10.16-11.9-.61-.53-1.52-.6-2.12,0-.54,.54-.62,1.59,0,2.12,3.97,3.43,6.8,7.92,10.16,11.9,.52,.62,1.58,.54,2.12,0,.61-.61,.52-1.5,0-2.12h0Z"/><path d="M30.36,173.15c-1.49-1.42-2.93-2.9-4.26-4.47-.73-.87-1.19-1.44-1.83-2.38-.28-.41-.54-.82-.78-1.25-.13-.22-.25-.45-.37-.68-.05-.1-.1-.2-.15-.3-.03-.06-.19-.42-.06-.12-.31-.75-.99-1.28-1.85-1.05-.7,.19-1.36,1.09-1.05,1.85,.9,2.16,2.26,4.03,3.75,5.82,1.39,1.66,2.9,3.22,4.47,4.71,.59,.56,1.54,.58,2.12,0s.59-1.56,0-2.12h0Z"/><path d="M133.91,53.55c-16.67,16.57-32.89,33.63-49.14,50.61-2,2.09-4.12,4.13-6,6.33-.66,.77-1.3,1.56-1.99,2.3-.32,.34-.64,.7-1,.99-.08,.07-.16,.14-.25,.2-.23,.15-.34,.08-.07,.09-1.93-.08-1.93,2.92,0,3,1.63,.06,2.98-1.62,3.95-2.72,1.4-1.59,2.78-3.15,4.24-4.68,4.2-4.4,8.41-8.79,12.65-13.16,8.46-8.71,16.85-17.5,25.31-26.22,4.77-4.91,9.57-9.79,14.42-14.62,1.37-1.36-.75-3.48-2.12-2.12h0Z"/><path d="M120.79,47.35c-1.66-12.75-4.96-25.36-4.93-38.28l-1.5,1.5c2.14,.2,4.18,1.74,5.84,2.97,2.07,1.53,3.97,3.27,5.91,4.95s3.98,3.18,5.96,4.78c2.47,2,4.97,4.05,7.87,5.39,.7,.32,1.66,.24,2.05-.54,4.13-8.16,6.28-17.26,7.87-26.21l-2.2,.9c2.52,1.74,3.77,5.38,4.74,8.13,1.11,3.18,1.94,6.47,2.61,9.77,.16,.79,1.11,1.25,1.85,1.05,9.69-2.69,16.36-10.83,24.78-15.8l-2.26-1.3c-.15,3.71-2.44,6.88-4.48,9.82s-4.34,6.16-5.08,9.86c-.12,.59,.06,1.42,.69,1.69,3.57,1.57,7.59,1.04,11.37,.86,4.58-.22,9.35,.16,13.84,1.06l-.66-2.51c-2.08,1.89-4.89,2.74-7.48,3.68-3.04,1.11-6.04,2.29-9.12,3.31-2.41,.8-4.79,1.68-7.17,2.55-1.58,.58-3.97,1.21-4.94,2.71-1.52,2.35,.89,5.28,2.34,6.99,2.5,2.97,5.48,5.54,8.39,8.1,2.51,2.21,5.47,4.32,7.53,6.98l.66-2.51c-1.76,.25-3.77-.68-5.34-1.37-1.78-.78-3.51-1.69-5.36-2.32-5.14-1.76-10.42-3.18-15.7-4.46-.79-.19-1.61,.25-1.85,1.05-.68,2.36,.34,5.13,1.13,7.33,.93,2.6,2.08,5.1,3.16,7.64,1.36,3.22,2.8,6.36,4.34,9.49,1.86,3.77,3.66,7.62,4.28,11.81l1.45-1.9c-5.15-.04-10.13-2.98-14.61-5.23-2.33-1.17-4.72-2.22-7.06-3.38-2.89-1.43-5.74-2.95-8.83-3.9-1.85-.57-2.64,2.32-.8,2.89,3.13,.97,5.99,2.58,8.93,4,2.42,1.17,4.87,2.29,7.27,3.49,4.66,2.34,9.76,5.08,15.1,5.12,1.07,0,1.59-.96,1.45-1.9-1.11-7.51-5.66-14.15-8.52-21.07-.96-2.34-2.03-4.62-2.93-6.99-.7-1.85-2-4.73-1.46-6.62l-1.85,1.05c5.44,1.32,11,2.69,16.25,4.65,3.81,1.43,7.48,4.09,11.74,3.49,1.26-.18,1.25-1.74,.66-2.51-1.66-2.14-3.98-3.87-6.01-5.64-2.84-2.48-5.7-4.95-8.31-7.67-1-1.04-2-2.12-2.78-3.33-.24-.38-.56-.97-.62-1.14-.04-.1-.23-.71-.12-.34-.08-.26-.06-.31,.02-.34-.11,.05-.17,.17,.07,.07,.37-.15,.72-.41,1.08-.57,.89-.41,1.82-.74,2.74-1.06,2.3-.81,4.58-1.67,6.89-2.43,3.17-1.05,6.26-2.29,9.4-3.43,2.87-1.04,5.78-2.11,8.08-4.19,.8-.73,.43-2.29-.66-2.51-4.41-.88-9.09-1.33-13.59-1.21-3.42,.09-7.65,1.03-10.91-.4l.69,1.69c1.54-7.61,9.33-12.38,9.67-20.48,.05-1.15-1.31-1.86-2.26-1.3-8.15,4.81-14.71,12.89-24.07,15.49l1.85,1.05c-.74-3.63-1.65-7.25-2.95-10.72-1.23-3.29-2.78-6.91-5.77-8.97-.75-.52-2.04-.02-2.2,.9-1.55,8.68-3.57,17.58-7.57,25.49l2.05-.54c-3.07-1.41-5.64-3.62-8.25-5.72-2-1.61-4.03-3.15-5.96-4.84-3.61-3.15-7.86-7.46-12.89-7.94-.81-.08-1.5,.75-1.5,1.5-.03,12.93,3.27,25.53,4.93,38.28,.11,.81,.61,1.49,1.5,1.5,.73,0,1.6-.7,1.5-1.5h0Z"/></g></g></svg>
