<?xml version="1.0" ?><svg viewBox="0 0 24 24" xmlns="http://www.w3.org/2000/svg"><g id="Line" fill="green"><path d="M18,1H6A5,5,0,0,0,1,6V18a5,5,0,0,0,5,5H18a5,5,0,0,0,5-5V6A5,5,0,0,0,18,1ZM3,6A3,3,0,0,1,6,3H18a3,3,0,0,1,3,3V7H3ZM18,21H6a3,3,0,0,1-3-3V9H21v9A3,3,0,0,1,18,21Z"/><path d="M10.71,12.29a1,1,0,0,0-1.42,0l-2,2a1,1,0,0,0,0,1.42l2,2a1,1,0,0,0,1.42,0,1,1,0,0,0,0-1.42L9.41,15l1.3-1.29A1,1,0,0,0,10.71,12.29Z"/><path d="M14.71,12.29a1,1,0,0,0-1.42,1.42L14.59,15l-1.3,1.29a1,1,0,0,0,0,1.42,1,1,0,0,0,1.42,0l2-2a1,1,0,0,0,0-1.42Z"/></g></svg>
